<mxfile host="Electron" modified="2024-01-25T07:23:34.666Z" agent="Mozilla/5.0 (Windows NT 10.0; Win64; x64) AppleWebKit/537.36 (KHTML, like Gecko) draw.io/22.1.21 Chrome/120.0.6099.109 Electron/28.1.0 Safari/537.36" etag="4AIJrDysHtckYO5Esesn" version="22.1.21" type="device">
  <diagram id="C5RBs43oDa-KdzZeNtuy" name="Page-1">
    <mxGraphModel dx="864" dy="516" grid="1" gridSize="10" guides="1" tooltips="1" connect="1" arrows="1" fold="1" page="1" pageScale="1" pageWidth="827" pageHeight="1169" math="0" shadow="0">
      <root>
        <mxCell id="WIyWlLk6GJQsqaUBKTNV-0" />
        <mxCell id="WIyWlLk6GJQsqaUBKTNV-1" parent="WIyWlLk6GJQsqaUBKTNV-0" />
        <mxCell id="-z1HLCg3K9KJ6hIdMIl3-7" value="Field" style="swimlane;fontStyle=1;align=center;verticalAlign=top;childLayout=stackLayout;horizontal=1;startSize=26;horizontalStack=0;resizeParent=1;resizeParentMax=0;resizeLast=0;collapsible=1;marginBottom=0;whiteSpace=wrap;html=1;" parent="WIyWlLk6GJQsqaUBKTNV-1" vertex="1">
          <mxGeometry x="330" y="120" width="160" height="86" as="geometry" />
        </mxCell>
        <mxCell id="-z1HLCg3K9KJ6hIdMIl3-8" value="-value String" style="text;strokeColor=none;fillColor=none;align=left;verticalAlign=top;spacingLeft=4;spacingRight=4;overflow=hidden;rotatable=0;points=[[0,0.5],[1,0.5]];portConstraint=eastwest;whiteSpace=wrap;html=1;" parent="-z1HLCg3K9KJ6hIdMIl3-7" vertex="1">
          <mxGeometry y="26" width="160" height="26" as="geometry" />
        </mxCell>
        <mxCell id="-z1HLCg3K9KJ6hIdMIl3-9" value="" style="line;strokeWidth=1;fillColor=none;align=left;verticalAlign=middle;spacingTop=-1;spacingLeft=3;spacingRight=3;rotatable=0;labelPosition=right;points=[];portConstraint=eastwest;strokeColor=inherit;" parent="-z1HLCg3K9KJ6hIdMIl3-7" vertex="1">
          <mxGeometry y="52" width="160" height="8" as="geometry" />
        </mxCell>
        <mxCell id="-z1HLCg3K9KJ6hIdMIl3-10" value="+is_valid" style="text;strokeColor=none;fillColor=none;align=left;verticalAlign=top;spacingLeft=4;spacingRight=4;overflow=hidden;rotatable=0;points=[[0,0.5],[1,0.5]];portConstraint=eastwest;whiteSpace=wrap;html=1;" parent="-z1HLCg3K9KJ6hIdMIl3-7" vertex="1">
          <mxGeometry y="60" width="160" height="26" as="geometry" />
        </mxCell>
        <mxCell id="-z1HLCg3K9KJ6hIdMIl3-20" value="&lt;i&gt;Basic&lt;/i&gt;" style="swimlane;fontStyle=0;childLayout=stackLayout;horizontal=1;startSize=26;fillColor=none;horizontalStack=0;resizeParent=1;resizeParentMax=0;resizeLast=0;collapsible=1;marginBottom=0;whiteSpace=wrap;html=1;" parent="WIyWlLk6GJQsqaUBKTNV-1" vertex="1">
          <mxGeometry x="340" y="10" width="140" height="52" as="geometry" />
        </mxCell>
        <mxCell id="-z1HLCg3K9KJ6hIdMIl3-22" value="+ is_valid" style="text;strokeColor=none;fillColor=none;align=left;verticalAlign=top;spacingLeft=4;spacingRight=4;overflow=hidden;rotatable=0;points=[[0,0.5],[1,0.5]];portConstraint=eastwest;whiteSpace=wrap;html=1;" parent="-z1HLCg3K9KJ6hIdMIl3-20" vertex="1">
          <mxGeometry y="26" width="140" height="26" as="geometry" />
        </mxCell>
        <mxCell id="-z1HLCg3K9KJ6hIdMIl3-58" value="&lt;i&gt;BasicRecord&lt;/i&gt;" style="swimlane;fontStyle=0;childLayout=stackLayout;horizontal=1;startSize=26;fillColor=none;horizontalStack=0;resizeParent=1;resizeParentMax=0;resizeLast=0;collapsible=1;marginBottom=0;whiteSpace=wrap;html=1;" parent="WIyWlLk6GJQsqaUBKTNV-1" vertex="1">
          <mxGeometry x="10" y="380" width="140" height="140" as="geometry" />
        </mxCell>
        <mxCell id="-z1HLCg3K9KJ6hIdMIl3-59" value="+add" style="text;strokeColor=none;fillColor=none;align=left;verticalAlign=top;spacingLeft=4;spacingRight=4;overflow=hidden;rotatable=0;points=[[0,0.5],[1,0.5]];portConstraint=eastwest;whiteSpace=wrap;html=1;" parent="-z1HLCg3K9KJ6hIdMIl3-58" vertex="1">
          <mxGeometry y="26" width="140" height="26" as="geometry" />
        </mxCell>
        <mxCell id="-z1HLCg3K9KJ6hIdMIl3-60" value="+remove&lt;br&gt;&lt;br&gt;+edit&lt;br&gt;&lt;br&gt;+find" style="text;strokeColor=none;fillColor=none;align=left;verticalAlign=top;spacingLeft=4;spacingRight=4;overflow=hidden;rotatable=0;points=[[0,0.5],[1,0.5]];portConstraint=eastwest;whiteSpace=wrap;html=1;" parent="-z1HLCg3K9KJ6hIdMIl3-58" vertex="1">
          <mxGeometry y="52" width="140" height="88" as="geometry" />
        </mxCell>
        <mxCell id="-z1HLCg3K9KJ6hIdMIl3-62" value="" style="line;strokeWidth=1;fillColor=none;align=left;verticalAlign=middle;spacingTop=-1;spacingLeft=3;spacingRight=3;rotatable=0;labelPosition=right;points=[];portConstraint=eastwest;strokeColor=inherit;" parent="WIyWlLk6GJQsqaUBKTNV-1" vertex="1">
          <mxGeometry x="360" y="270" width="40" height="8" as="geometry" />
        </mxCell>
        <mxCell id="-z1HLCg3K9KJ6hIdMIl3-63" value="Name" style="swimlane;fontStyle=1;align=center;verticalAlign=top;childLayout=stackLayout;horizontal=1;startSize=26;horizontalStack=0;resizeParent=1;resizeParentMax=0;resizeLast=0;collapsible=1;marginBottom=0;whiteSpace=wrap;html=1;" parent="WIyWlLk6GJQsqaUBKTNV-1" vertex="1">
          <mxGeometry x="50" y="244" width="160" height="34" as="geometry" />
        </mxCell>
        <mxCell id="-z1HLCg3K9KJ6hIdMIl3-65" value="" style="line;strokeWidth=1;fillColor=none;align=left;verticalAlign=middle;spacingTop=-1;spacingLeft=3;spacingRight=3;rotatable=0;labelPosition=right;points=[];portConstraint=eastwest;strokeColor=inherit;" parent="-z1HLCg3K9KJ6hIdMIl3-63" vertex="1">
          <mxGeometry y="26" width="160" height="8" as="geometry" />
        </mxCell>
        <mxCell id="-z1HLCg3K9KJ6hIdMIl3-67" value="Phone" style="swimlane;fontStyle=1;align=center;verticalAlign=top;childLayout=stackLayout;horizontal=1;startSize=26;horizontalStack=0;resizeParent=1;resizeParentMax=0;resizeLast=0;collapsible=1;marginBottom=0;whiteSpace=wrap;html=1;" parent="WIyWlLk6GJQsqaUBKTNV-1" vertex="1">
          <mxGeometry x="320" y="244" width="160" height="34" as="geometry" />
        </mxCell>
        <mxCell id="-z1HLCg3K9KJ6hIdMIl3-68" value="" style="line;strokeWidth=1;fillColor=none;align=left;verticalAlign=middle;spacingTop=-1;spacingLeft=3;spacingRight=3;rotatable=0;labelPosition=right;points=[];portConstraint=eastwest;strokeColor=inherit;" parent="-z1HLCg3K9KJ6hIdMIl3-67" vertex="1">
          <mxGeometry y="26" width="160" height="8" as="geometry" />
        </mxCell>
        <mxCell id="-z1HLCg3K9KJ6hIdMIl3-69" value="Birthday" style="swimlane;fontStyle=1;align=center;verticalAlign=top;childLayout=stackLayout;horizontal=1;startSize=26;horizontalStack=0;resizeParent=1;resizeParentMax=0;resizeLast=0;collapsible=1;marginBottom=0;whiteSpace=wrap;html=1;" parent="WIyWlLk6GJQsqaUBKTNV-1" vertex="1">
          <mxGeometry x="600" y="244" width="160" height="34" as="geometry" />
        </mxCell>
        <mxCell id="-z1HLCg3K9KJ6hIdMIl3-70" value="" style="line;strokeWidth=1;fillColor=none;align=left;verticalAlign=middle;spacingTop=-1;spacingLeft=3;spacingRight=3;rotatable=0;labelPosition=right;points=[];portConstraint=eastwest;strokeColor=inherit;" parent="-z1HLCg3K9KJ6hIdMIl3-69" vertex="1">
          <mxGeometry y="26" width="160" height="8" as="geometry" />
        </mxCell>
        <mxCell id="-z1HLCg3K9KJ6hIdMIl3-71" value="Record" style="swimlane;fontStyle=1;align=center;verticalAlign=top;childLayout=stackLayout;horizontal=1;startSize=26;horizontalStack=0;resizeParent=1;resizeParentMax=0;resizeLast=0;collapsible=1;marginBottom=0;whiteSpace=wrap;html=1;" parent="WIyWlLk6GJQsqaUBKTNV-1" vertex="1">
          <mxGeometry x="230" y="390" width="170" height="130" as="geometry" />
        </mxCell>
        <mxCell id="-z1HLCg3K9KJ6hIdMIl3-72" value="+name Name" style="text;strokeColor=none;fillColor=none;align=left;verticalAlign=top;spacingLeft=4;spacingRight=4;overflow=hidden;rotatable=0;points=[[0,0.5],[1,0.5]];portConstraint=eastwest;whiteSpace=wrap;html=1;" parent="-z1HLCg3K9KJ6hIdMIl3-71" vertex="1">
          <mxGeometry y="26" width="170" height="26" as="geometry" />
        </mxCell>
        <mxCell id="-z1HLCg3K9KJ6hIdMIl3-73" value="" style="line;strokeWidth=1;fillColor=none;align=left;verticalAlign=middle;spacingTop=-1;spacingLeft=3;spacingRight=3;rotatable=0;labelPosition=right;points=[];portConstraint=eastwest;strokeColor=inherit;" parent="-z1HLCg3K9KJ6hIdMIl3-71" vertex="1">
          <mxGeometry y="52" width="170" height="8" as="geometry" />
        </mxCell>
        <mxCell id="-z1HLCg3K9KJ6hIdMIl3-74" value="+days_to_birthday&lt;br&gt;&lt;br&gt;+get_phone" style="text;strokeColor=none;fillColor=none;align=left;verticalAlign=top;spacingLeft=4;spacingRight=4;overflow=hidden;rotatable=0;points=[[0,0.5],[1,0.5]];portConstraint=eastwest;whiteSpace=wrap;html=1;" parent="-z1HLCg3K9KJ6hIdMIl3-71" vertex="1">
          <mxGeometry y="60" width="170" height="70" as="geometry" />
        </mxCell>
        <mxCell id="-z1HLCg3K9KJ6hIdMIl3-79" value="1" style="endArrow=open;html=1;endSize=12;startArrow=diamondThin;startSize=14;startFill=1;edgeStyle=orthogonalEdgeStyle;align=left;verticalAlign=bottom;rounded=0;exitX=0.412;exitY=0;exitDx=0;exitDy=0;exitPerimeter=0;" parent="WIyWlLk6GJQsqaUBKTNV-1" source="-z1HLCg3K9KJ6hIdMIl3-71" edge="1">
          <mxGeometry x="-0.9309" relative="1" as="geometry">
            <mxPoint x="290" y="360" as="sourcePoint" />
            <mxPoint x="130" y="280" as="targetPoint" />
            <mxPoint as="offset" />
          </mxGeometry>
        </mxCell>
        <mxCell id="-z1HLCg3K9KJ6hIdMIl3-82" value="1" style="endArrow=open;html=1;endSize=12;startArrow=diamondThin;startSize=14;startFill=1;edgeStyle=orthogonalEdgeStyle;align=left;verticalAlign=bottom;rounded=0;entryX=0.5;entryY=1;entryDx=0;entryDy=0;" parent="WIyWlLk6GJQsqaUBKTNV-1" target="-z1HLCg3K9KJ6hIdMIl3-67" edge="1">
          <mxGeometry x="-1" y="-10" relative="1" as="geometry">
            <mxPoint x="330" y="390" as="sourcePoint" />
            <mxPoint x="490" y="380" as="targetPoint" />
            <mxPoint x="-10" y="10" as="offset" />
          </mxGeometry>
        </mxCell>
        <mxCell id="-z1HLCg3K9KJ6hIdMIl3-84" value="1" style="endArrow=open;html=1;endSize=12;startArrow=diamondThin;startSize=14;startFill=0;edgeStyle=orthogonalEdgeStyle;align=left;verticalAlign=bottom;rounded=0;" parent="WIyWlLk6GJQsqaUBKTNV-1" edge="1">
          <mxGeometry x="-0.8467" y="-10" relative="1" as="geometry">
            <mxPoint x="380" y="372" as="sourcePoint" />
            <mxPoint x="651" y="280" as="targetPoint" />
            <Array as="points">
              <mxPoint x="380" y="382" />
              <mxPoint x="381" y="382" />
              <mxPoint x="381" y="342" />
              <mxPoint x="651" y="342" />
            </Array>
            <mxPoint as="offset" />
          </mxGeometry>
        </mxCell>
        <mxCell id="-z1HLCg3K9KJ6hIdMIl3-85" value="AddressBook" style="swimlane;fontStyle=0;childLayout=stackLayout;horizontal=1;startSize=26;fillColor=none;horizontalStack=0;resizeParent=1;resizeParentMax=0;resizeLast=0;collapsible=1;marginBottom=0;whiteSpace=wrap;html=1;" parent="WIyWlLk6GJQsqaUBKTNV-1" vertex="1">
          <mxGeometry x="510" y="393" width="140" height="220" as="geometry" />
        </mxCell>
        <mxCell id="-z1HLCg3K9KJ6hIdMIl3-86" value="l+add_record" style="text;strokeColor=none;fillColor=none;align=left;verticalAlign=top;spacingLeft=4;spacingRight=4;overflow=hidden;rotatable=0;points=[[0,0.5],[1,0.5]];portConstraint=eastwest;whiteSpace=wrap;html=1;" parent="-z1HLCg3K9KJ6hIdMIl3-85" vertex="1">
          <mxGeometry y="26" width="140" height="26" as="geometry" />
        </mxCell>
        <mxCell id="-z1HLCg3K9KJ6hIdMIl3-87" value="+find" style="text;strokeColor=none;fillColor=none;align=left;verticalAlign=top;spacingLeft=4;spacingRight=4;overflow=hidden;rotatable=0;points=[[0,0.5],[1,0.5]];portConstraint=eastwest;whiteSpace=wrap;html=1;" parent="-z1HLCg3K9KJ6hIdMIl3-85" vertex="1">
          <mxGeometry y="52" width="140" height="26" as="geometry" />
        </mxCell>
        <mxCell id="-z1HLCg3K9KJ6hIdMIl3-88" value="+delete&lt;br&gt;&lt;br&gt;+iterator&lt;br&gt;&lt;br&gt;+save_contacts_to_file&lt;br&gt;&lt;br&gt;+read_contacts_from_file&lt;br&gt;&lt;br&gt;find_inf" style="text;strokeColor=none;fillColor=none;align=left;verticalAlign=top;spacingLeft=4;spacingRight=4;overflow=hidden;rotatable=0;points=[[0,0.5],[1,0.5]];portConstraint=eastwest;whiteSpace=wrap;html=1;" parent="-z1HLCg3K9KJ6hIdMIl3-85" vertex="1">
          <mxGeometry y="78" width="140" height="142" as="geometry" />
        </mxCell>
        <mxCell id="-z1HLCg3K9KJ6hIdMIl3-89" value="1" style="endArrow=open;html=1;endSize=12;startArrow=diamondThin;startSize=14;startFill=1;edgeStyle=orthogonalEdgeStyle;align=left;verticalAlign=bottom;rounded=0;exitX=-0.014;exitY=0.261;exitDx=0;exitDy=0;exitPerimeter=0;entryX=1.024;entryY=0.829;entryDx=0;entryDy=0;entryPerimeter=0;" parent="WIyWlLk6GJQsqaUBKTNV-1" source="-z1HLCg3K9KJ6hIdMIl3-88" target="-z1HLCg3K9KJ6hIdMIl3-74" edge="1">
          <mxGeometry x="-1" y="3" relative="1" as="geometry">
            <mxPoint x="300" y="370" as="sourcePoint" />
            <mxPoint x="410" y="460" as="targetPoint" />
          </mxGeometry>
        </mxCell>
        <mxCell id="OmyNaByXklcVGRI7E77u-0" value="Extends" style="endArrow=block;endSize=16;endFill=0;html=1;rounded=0;entryX=0.013;entryY=1;entryDx=0;entryDy=0;entryPerimeter=0;" parent="WIyWlLk6GJQsqaUBKTNV-1" target="-z1HLCg3K9KJ6hIdMIl3-8" edge="1">
          <mxGeometry width="160" relative="1" as="geometry">
            <mxPoint x="120" y="240" as="sourcePoint" />
            <mxPoint x="390" y="210" as="targetPoint" />
          </mxGeometry>
        </mxCell>
        <mxCell id="OmyNaByXklcVGRI7E77u-2" value="Extends" style="endArrow=block;endSize=16;endFill=0;html=1;rounded=0;exitX=0.5;exitY=0;exitDx=0;exitDy=0;entryX=1.013;entryY=1.115;entryDx=0;entryDy=0;entryPerimeter=0;" parent="WIyWlLk6GJQsqaUBKTNV-1" source="-z1HLCg3K9KJ6hIdMIl3-69" target="-z1HLCg3K9KJ6hIdMIl3-8" edge="1">
          <mxGeometry width="160" relative="1" as="geometry">
            <mxPoint x="680" y="370" as="sourcePoint" />
            <mxPoint x="490" y="340" as="targetPoint" />
            <Array as="points">
              <mxPoint x="590" y="210" />
            </Array>
          </mxGeometry>
        </mxCell>
        <mxCell id="OmyNaByXklcVGRI7E77u-3" value="Extends" style="endArrow=block;endSize=16;endFill=0;html=1;rounded=0;exitX=0.5;exitY=0;exitDx=0;exitDy=0;entryX=0.5;entryY=1;entryDx=0;entryDy=0;entryPerimeter=0;" parent="WIyWlLk6GJQsqaUBKTNV-1" source="-z1HLCg3K9KJ6hIdMIl3-7" target="-z1HLCg3K9KJ6hIdMIl3-22" edge="1">
          <mxGeometry width="160" relative="1" as="geometry">
            <mxPoint x="330" y="270" as="sourcePoint" />
            <mxPoint x="490" y="270" as="targetPoint" />
          </mxGeometry>
        </mxCell>
        <mxCell id="OmyNaByXklcVGRI7E77u-5" value="Extends" style="endArrow=block;endSize=16;endFill=0;html=1;rounded=0;exitX=-0.012;exitY=0.257;exitDx=0;exitDy=0;exitPerimeter=0;entryX=0.993;entryY=0.115;entryDx=0;entryDy=0;entryPerimeter=0;" parent="WIyWlLk6GJQsqaUBKTNV-1" source="-z1HLCg3K9KJ6hIdMIl3-74" edge="1">
          <mxGeometry width="160" relative="1" as="geometry">
            <mxPoint x="150" y="460" as="sourcePoint" />
            <mxPoint x="149.01999999999998" y="463.98" as="targetPoint" />
          </mxGeometry>
        </mxCell>
        <mxCell id="OmyNaByXklcVGRI7E77u-6" value="Extends" style="endArrow=block;endSize=16;endFill=0;html=1;rounded=0;" parent="WIyWlLk6GJQsqaUBKTNV-1" edge="1">
          <mxGeometry width="160" relative="1" as="geometry">
            <mxPoint x="400" y="240" as="sourcePoint" />
            <mxPoint x="400" y="210" as="targetPoint" />
          </mxGeometry>
        </mxCell>
      </root>
    </mxGraphModel>
  </diagram>
</mxfile>
